<svg width="18" height="18" viewBox="0 0 18 18" fill="none" xmlns="http://www.w3.org/2000/svg">
<g clip-path="url(#clip0_56_1364)">
<path d="M2.07342 8.10174C2.21849 7.95672 2.41523 7.87524 2.62036 7.87524C2.82549 7.87524 3.02222 7.95672 3.16729 8.10174L6.99659 11.931L10.8259 8.10174C10.9718 7.96083 11.1672 7.88285 11.37 7.88461C11.5729 7.88638 11.7669 7.96774 11.9103 8.11117C12.0538 8.2546 12.1351 8.44863 12.1369 8.65146C12.1387 8.85429 12.0607 9.04971 11.9198 9.19561L7.54353 13.5718C7.39846 13.7169 7.20172 13.7983 6.99659 13.7983C6.79146 13.7983 6.59473 13.7169 6.44966 13.5718L2.07342 9.19561C1.9284 9.05054 1.84692 8.85381 1.84692 8.64868C1.84692 8.44355 1.9284 8.24681 2.07342 8.10174Z" fill="#484848"/>
</g>
<defs>
<clipPath id="clip0_56_1364">
<rect width="18" height="18" fill="white"/>
</clipPath>
</defs>
</svg>
